<?xml version="1.0" encoding="utf-8"?>
<!-- Generator: Adobe Illustrator 21.0.0, SVG Export Plug-In . SVG Version: 6.00 Build 0)  -->
<svg version="1.1" id="Layer_1" xmlns="http://www.w3.org/2000/svg" xmlns:xlink="http://www.w3.org/1999/xlink" x="0px" y="0px"
	 viewBox="0 0 612 792" style="enable-background:new 0 0 612 792;" xml:space="preserve">
<style type="text/css">
	.st0{fill:url(#SVGID_1_);}
</style>
<linearGradient id="SVGID_1_" gradientUnits="userSpaceOnUse" x1="-36.0879" y1="491.9331" x2="555.3899" y2="315.5524">
	<stop  offset="0" style="stop-color:#5C53A3"/>
	<stop  offset="1" style="stop-color:#DF519D"/>
</linearGradient>
<path class="st0" d="M464.4,437c-0.2-0.3-0.3-0.6-0.4-0.9c-2.4-4.2-8.8-8.9-15.2-12c-7.5-2.8-14.7-2.4-21.8-0.3
	c-18.6,6.9-64.4,23.5-70.3,25.5c-3.8,1.7-6.3,2.1-8.1,2c-1.1,0-2.3-0.2-3.2-0.7c-1.7-0.6-11.1-5.8-11.1-5.8l-31.3-17.7H348
	c5.6,0,10.9-2.8,13.9-7.5c0.1-0.1,0.1-0.2,0.2-0.3c2.6-5.3,5.1-12.7,4-20.5c0-0.2-0.1-0.3-0.1-0.5c-0.4-1.3-3.5-9.5-3.6-9.7
	c-0.7-1-3.4-4.4-7.3-7.9c-3.5-3.1-8-4.7-12.6-5h-58.2l-33.7,13.2c0.1,0,0.2,0,0.4,0c-7.3,2.8-14.5,5.7-21.9,8.4l-1.4,0.5
	c0,0-0.3,0.1-0.8,0.2c-3.2,1.1-6.5,2.2-9.9,3.2c-3.5,1.2-7.2,2.6-10,3.9c-3.4,1.6-6.4,2.3-8.6,2.6c-0.4,0.1-0.9,0.1-1.5,0.2
	c-1.6,0.1-2.6,0-2.8,0c-14-0.1-28.1-0.1-42.1-0.1c-7,0-9,1.9-9,8.8c0,34.6,0,69.2-0.1,103.9c0,3.8,1,6.8,4.3,8.9h55.5
	c3.5-2.1,4.6-5.2,4.4-9.2c-0.2-4.9-0.1-9.9-0.1-15c1.6,0.2,2.6,0.3,3.6,0.4c40.9,7.4,81.8,14.8,122.7,22.4
	c6.2,1.1,11.8,0.4,17.5-2.1c32.9-14.4,65.9-28.6,98.9-42.8C467.9,475.6,474.8,454,464.4,437z M193.8,516.7h-38V421h38V516.7z
	 M444.4,471.8c-32.5,14-65.1,28.1-97.5,42.2c-5.7,2.5-10.9,2.7-18,0c-37.1-14-76.3-21-115.9-20.9c-5.3,0-6-1.1-6-4
	c0.1-11.2,0-22.5,0-33.7c0-11.1,0.1-22.2-0.1-33.4c0-2.4,0.8-3.4,3-4.2c26.3-9.3,52.6-18.8,78.9-28.1c1.4-0.5,2.9-0.8,4.4-0.9
	c14.9-0.1,29.7-0.1,44.6,0c6.7,0.1,11.8,3.1,14.7,9.3c2.8,6,2,11.7-2.1,16.9c-3.3,4.2-7.9,5.9-13.2,5.9c-15.1,0-30.2,0-45.4,0
	c-4.7,0-7.4,1.6-8,5.1c-0.7,3.8,1.5,6,4.6,7.7c16.7,9.2,33.4,18.5,50.1,27.8c6.1,3.4,12.2,3.5,18.7,1.2
	c24.4-8.9,48.8-17.6,73.2-26.4c10.3-3.7,20.9,0.9,24.7,10.7C459,456.7,454.3,467.5,444.4,471.8z M274.7,379.5c0-41.6,0-81.7,0-123.3
	c0-1.1,0-2.3,0.2-3.4c0.8-3.3,3.9-5.5,7.2-5.4c3.3,0.1,6.1,2.5,6.7,5.8c0.2,1,0.2,2,0.2,3.1c0,29,0,58.1,0,87.1c0,0.7,0,1.4,0,2.6
	c0.7-0.8,1.1-1.3,1.5-1.8c8.9-11.9,17.7-23.9,26.6-35.8c3.2-4.3,6.2-5.1,11.1-2.7c16.4,8.1,32.8,16.2,49.2,24.3
	c1.5,0.7,2.1,0.4,3-0.8c12.5-16.7,25-33.3,37.5-50c2-2.6,4.5-3.8,7.7-3.1c3,0.6,4.8,2.6,5.5,5.6c0.6,2.5-0.4,4.6-1.9,6.5
	c-8.1,10.7-16.1,21.5-24.2,32.2c-5.6,7.5-11.3,15-16.9,22.5c-3.4,4.5-6.3,5.3-11.4,2.8c-16.4-8.1-32.8-16.2-49.2-24.3
	c-0.5-0.2-1-0.5-1.5-0.7c-0.3,0.4-0.6,0.6-0.8,1c-11.8,15.9-23.5,31.7-35.3,47.6c-0.4,0.5-0.8,1.3-0.8,1.9c0,3,0,1.6,0,4.6l-5,0
	L274.7,379.5z M385.2,302.7c0,8.7-3.2,13.6-8.9,13.6c-5,0-8.4-4.7-8.5-13.2c0-8.6,3.7-13.4,8.9-13.4
	C382.1,289.7,385.2,294.5,385.2,302.7z M371.3,303.1c0,6.7,2.1,10.5,5.2,10.5c3.6,0,5.3-4.1,5.3-10.7c0-6.3-1.6-10.5-5.2-10.5
	C373.5,292.4,371.3,296.1,371.3,303.1z M441.9,308.2c0,8.7-3.2,13.6-8.9,13.6c-5,0-8.4-4.7-8.5-13.2c0-8.6,3.7-13.4,8.9-13.4
	C438.8,295.2,441.9,300,441.9,308.2z M428,308.6c0,6.7,2.1,10.5,5.2,10.5c3.6,0,5.3-4.1,5.3-10.7c0-6.3-1.6-10.5-5.2-10.5
	C430.2,297.9,428,301.6,428,308.6z"/>
</svg>
