<?xml version="1.0" encoding="utf-8"?>
<!-- Generator: Adobe Illustrator 21.0.0, SVG Export Plug-In . SVG Version: 6.00 Build 0)  -->
<svg version="1.1" id="Layer_1" xmlns="http://www.w3.org/2000/svg" xmlns:xlink="http://www.w3.org/1999/xlink" x="0px" y="0px"
	 viewBox="0 0 496 496" style="enable-background:new 0 0 496 496;" xml:space="preserve">
<style type="text/css">
	.st0{fill:url(#SVGID_1_);}
</style>
<linearGradient id="SVGID_1_" gradientUnits="userSpaceOnUse" x1="248" y1="2" x2="248" y2="498" gradientTransform="matrix(1 0 0 -1 0 498)">
	<stop  offset="0" style="stop-color:#5B53A2"/>
	<stop  offset="1" style="stop-color:#DE509C"/>
</linearGradient>
<path class="st0" d="M48,448h16v16H48V448z M80,464h16v-16H80V464z M112,464h16v-16h-16V464z M384,464h64v-16h-64V464z M480,416h16
	v40c0,22.1-17.9,40-40,40H40c-22.1,0-40-17.9-40-40v-40h16V152c0-22.1,17.9-40,40-40h136C192,50.2,242.2,0,304,0s112,50.2,112,112
	h24c22.1,0,40,17.9,40,40V416z M414.7,128c-0.8,5.5-1.9,10.8-3.4,16H432c8.8,0,16,7.2,16,16v256h16V152c0-13.2-10.8-24-24-24H414.7z
	 M208,112c0,52.9,43.1,96,96,96c7.8,0,15.4-1,22.6-2.8L297.6,118l-84.9-35.4C209.7,91.9,208,101.7,208,112z M400,112
	c0-23.6-8.6-45.2-22.8-61.9l-64.1,64.1l28.7,86C376,185.5,400,151.5,400,112z M218.8,67.9l83.3,34.7l63.8-63.8
	C349.2,24.6,327.6,16,304,16C267,16,234.9,37.1,218.8,67.9z M32,416h16V160c0-8.8,7.2-16,16-16h132.7c-1.5-5.2-2.7-10.5-3.4-16H56
	c-13.2,0-24,10.8-24,24V416z M480,432h-48V160h-27c-18,37.8-56.5,64-101,64s-83-26.2-101-64H64v256h123.3l2.3,2.3
	c8.8,8.8,20.5,13.7,33,13.7h50.7c12.5,0,24.2-4.8,33-13.7l2.3-2.3H416v16H315.2c-11.5,10.3-26.2,16-41.8,16h-50.7
	c-15.6,0-30.3-5.7-41.8-16H16v24c0,13.2,10.8,24,24,24h416c13.2,0,24-10.8,24-24V432z M416,360c0,13.2-10.8,24-24,24s-24-10.8-24-24
	c0-2.5,0.5-4.8,1.2-7.1L341.3,332c-3.8,2.5-8.4,4-13.3,4c-4.6,0-8.9-1.4-12.6-3.7l-44.8,35.8c0.9,2.5,1.4,5.1,1.4,7.8
	c0,13.2-10.8,24-24,24s-24-10.8-24-24c0-2,0.3-4,0.8-5.8l-34.5-23c-4,3-8.9,4.8-14.3,4.8s-10.3-1.8-14.3-4.8l-34.5,23
	c0.5,1.9,0.8,3.8,0.8,5.8c0,13.2-10.8,24-24,24s-24-10.8-24-24s10.8-24,24-24c5.4,0,10.3,1.8,14.3,4.8l34.5-23
	c-0.5-1.9-0.8-3.8-0.8-5.8c0-13.2,10.8-24,24-24s24,10.8,24,24c0,2-0.3,4-0.8,5.8l34.5,23c4-3,8.9-4.8,14.3-4.8
	c4.6,0,8.9,1.4,12.6,3.7l44.8-35.8c-0.9-2.5-1.4-5.1-1.4-7.8c0-13.2,10.8-24,24-24s24,10.8,24,24c0,2.5-0.5,4.8-1.2,7.1l27.9,20.9
	c3.8-2.5,8.4-4,13.3-4C405.2,336,416,346.8,416,360z M112,376c0-4.4-3.6-8-8-8s-8,3.6-8,8s3.6,8,8,8S112,380.4,112,376z M184,328
	c0-4.4-3.6-8-8-8s-8,3.6-8,8s3.6,8,8,8S184,332.4,184,328z M256,376c0-4.4-3.6-8-8-8s-8,3.6-8,8s3.6,8,8,8S256,380.4,256,376z
	 M336,312c0-4.4-3.6-8-8-8s-8,3.6-8,8s3.6,8,8,8S336,316.4,336,312z M400,360c0-4.4-3.6-8-8-8s-8,3.6-8,8s3.6,8,8,8
	S400,364.4,400,360z M208,288H80V176h128V288z M192,192H96v80h96V192z M176,208h-64v16h64V208z M176,240h-64v16h64V240z M240,256
	h-16v16h16V256z M416,256H256v16h160V256z"/>
</svg>
